<svg width="15" height="16" viewBox="0 0 15 16" fill="none" xmlns="http://www.w3.org/2000/svg">
<path d="M7.43134 1.78635C9.38101 1.78635 9.64687 1.78635 10.4445 1.78635C11.1534 1.78635 11.5079 1.96359 11.7738 2.05221C12.1283 2.22945 12.3941 2.31807 12.66 2.58393C12.9258 2.8498 13.1031 3.11566 13.1917 3.47014C13.2803 3.73601 13.3689 4.09049 13.4576 4.79946C13.4576 5.59705 13.4576 5.77429 13.4576 7.81257C13.4576 9.85085 13.4576 10.0281 13.4576 10.8257C13.4576 11.5347 13.2803 11.8891 13.1917 12.155C13.0145 12.5095 12.9258 12.7753 12.66 13.0412C12.3941 13.3071 12.1283 13.4843 11.7738 13.5729C11.5079 13.6616 11.1534 13.7502 10.4445 13.8388C9.64687 13.8388 9.46963 13.8388 7.43134 13.8388C5.39306 13.8388 5.21582 13.8388 4.41823 13.8388C3.70927 13.8388 3.35478 13.6616 3.08892 13.5729C2.73443 13.3957 2.46857 13.3071 2.20271 13.0412C1.93685 12.7753 1.7596 12.5095 1.67098 12.155C1.58236 11.8891 1.49374 11.5347 1.40512 10.8257C1.40512 10.0281 1.40512 9.85085 1.40512 7.81257C1.40512 5.77429 1.40512 5.59705 1.40512 4.79946C1.40512 4.09049 1.58236 3.73601 1.67098 3.47014C1.84822 3.11566 1.93685 2.8498 2.20271 2.58393C2.46857 2.31807 2.73443 2.14083 3.08892 2.05221C3.35478 1.96359 3.70927 1.87497 4.41823 1.78635C5.21582 1.78635 5.48168 1.78635 7.43134 1.78635ZM7.43134 0.457031C5.39306 0.457031 5.21582 0.457031 4.41823 0.457031C3.62064 0.457031 3.08892 0.634274 2.64581 0.811516C2.20271 0.988757 1.7596 1.25462 1.3165 1.69773C0.873395 2.14083 0.696153 2.49531 0.43029 3.02704C0.253048 3.47014 0.164427 4.00187 0.0758057 4.79946C0.0758057 5.59705 0.0758057 5.86291 0.0758057 7.81257C0.0758057 9.85085 0.0758057 10.0281 0.0758057 10.8257C0.0758057 11.6233 0.253048 12.155 0.43029 12.5981C0.607532 13.0412 0.873395 13.4843 1.3165 13.9274C1.7596 14.3705 2.11409 14.5478 2.64581 14.8136C3.08892 14.9909 3.62064 15.0795 4.41823 15.1681C5.21582 15.1681 5.48168 15.1681 7.43134 15.1681C9.38101 15.1681 9.64687 15.1681 10.4445 15.1681C11.242 15.1681 11.7738 14.9909 12.2169 14.8136C12.66 14.6364 13.1031 14.3705 13.5462 13.9274C13.9893 13.4843 14.1665 13.1298 14.4324 12.5981C14.6096 12.155 14.6983 11.6233 14.7869 10.8257C14.7869 10.0281 14.7869 9.76223 14.7869 7.81257C14.7869 5.86291 14.7869 5.59705 14.7869 4.79946C14.7869 4.00187 14.6096 3.47014 14.4324 3.02704C14.2552 2.58393 13.9893 2.14083 13.5462 1.69773C13.1031 1.25462 12.7486 1.07738 12.2169 0.811516C11.7738 0.634274 11.242 0.545652 10.4445 0.457031C9.64687 0.457031 9.46963 0.457031 7.43134 0.457031Z" fill="#0C1518"/>
<path d="M7.43134 4.00187C5.30444 4.00187 3.62064 5.68567 3.62064 7.81257C3.62064 9.93947 5.30444 11.6233 7.43134 11.6233C9.55825 11.6233 11.242 9.93947 11.242 7.81257C11.242 5.68567 9.55825 4.00187 7.43134 4.00187ZM7.43134 10.294C6.10203 10.294 4.94996 9.23051 4.94996 7.81257C4.94996 6.48326 6.01341 5.33118 7.43134 5.33118C8.76066 5.33118 9.91273 6.39464 9.91273 7.81257C9.91273 9.14188 8.76066 10.294 7.43134 10.294Z" fill="#0C1518"/>
<path d="M11.3307 4.79946C11.8201 4.79946 12.2169 4.40269 12.2169 3.91325C12.2169 3.42381 11.8201 3.02704 11.3307 3.02704C10.8412 3.02704 10.4445 3.42381 10.4445 3.91325C10.4445 4.40269 10.8412 4.79946 11.3307 4.79946Z" fill="#0C1518"/>
</svg>
