<svg width="41" height="39" viewBox="0 0 41 39" fill="none" xmlns="http://www.w3.org/2000/svg">
<path d="M5.31431 17.3709C3.61578 18.9633 2.34188 20.768 1.91725 23.1034C1.59878 24.802 1.70494 26.5005 2.02341 28.199C2.23573 29.5791 2.66036 30.9591 2.97883 32.233C3.61578 34.1439 3.50962 36.0547 3.50962 37.9656C3.50962 38.4963 3.19115 38.8148 2.66036 38.7087C2.23573 38.7087 1.91725 38.3902 1.91725 37.8594C1.91725 37.6471 1.91725 37.5409 1.91725 37.3286C2.02341 35.2055 1.70494 33.2946 1.06799 31.2776C0.431041 29.2606 0.00640869 27.1374 0.00640869 24.9081C0.00640869 22.2542 0.961831 19.8125 2.66036 17.7955C3.40346 16.9463 4.04041 16.2032 4.78352 15.3539C4.99583 15.1416 5.10199 14.8231 5.10199 14.5046C5.10199 10.8953 5.10199 7.2859 5.10199 3.67653C5.31431 1.978 6.69436 0.704102 8.39289 0.704102C18.2656 0.704102 28.1383 0.704102 38.011 0.704102C39.6033 0.704102 40.9834 2.08416 40.9834 3.67653C40.9834 9.19674 40.9834 14.8231 40.9834 20.3433C40.9834 22.148 39.8157 23.3158 38.011 23.3158C30.4738 23.3158 22.9365 23.3158 15.3993 23.3158C14.7624 23.3158 14.7624 23.3158 14.8685 23.9527C14.9747 25.2266 15.2932 26.3943 15.2932 27.6682C15.187 30.3222 14.5501 32.7638 13.0638 34.9931C12.6392 35.5239 12.4269 36.1609 12.5331 36.7978C12.5331 37.1163 12.5331 37.5409 12.5331 37.8594C12.5331 38.3902 12.2146 38.7087 11.6838 38.6025C11.2592 38.6025 10.9407 38.284 10.9407 37.7532C10.9407 37.2225 10.9407 36.6917 10.9407 36.1609C10.9407 35.6301 11.153 34.9931 11.4715 34.5685C12.7454 32.7638 13.4885 30.853 13.7008 28.6237C13.8069 27.3498 13.7008 26.182 13.4885 24.9081C13.0638 22.2542 13.2762 19.8125 14.4439 17.3709C15.0808 15.9909 14.3377 14.9293 13.2762 14.717C12.6392 14.6108 12.0023 14.717 11.5776 15.3539C10.5161 16.734 9.56063 18.2202 9.24216 20.0249C9.136 20.768 9.136 21.5111 9.136 22.2542C9.24216 24.9081 8.28673 27.1374 6.80052 29.2606C6.48205 29.6852 6.16357 29.6852 5.73894 29.4729C5.42047 29.2606 5.31431 28.836 5.52662 28.4113C5.8451 27.8806 6.16357 27.3498 6.48205 26.819C7.119 25.8636 7.43747 24.6958 7.54363 23.5281C7.54363 23.2096 7.54363 23.1034 7.22515 22.9973C6.05741 22.4665 5.42047 21.5111 5.42047 20.2372C5.42047 19.2818 5.42047 18.3263 5.42047 17.3709C5.42047 17.4771 5.42047 17.4771 5.31431 17.3709ZM23.255 2.19031C18.3717 2.19031 13.5946 2.19031 8.71136 2.19031C7.43747 2.19031 6.90668 2.61495 6.90668 3.88884C6.90668 9.3029 6.90668 14.717 6.90668 20.0249C6.90668 20.2372 6.90668 20.4495 6.90668 20.5556C6.90668 20.8741 7.11899 21.0864 7.22515 21.2988C7.33131 21.4049 7.33131 21.4049 7.43747 21.4049C7.64979 21.5111 7.64979 21.4049 7.64979 21.2988C7.64979 20.9803 7.75594 20.5556 7.75594 20.2372C7.96826 18.114 9.02984 16.3093 10.3037 14.6108C11.7899 12.5938 14.9747 13.0184 15.9301 15.2477C16.2486 16.097 16.2486 16.9463 15.9301 17.7955C15.3993 18.8571 15.0808 19.9187 14.8685 21.0864C14.7624 21.8295 14.7624 21.7234 15.3993 21.7234C22.8304 21.7234 30.3676 21.7234 37.7987 21.7234C37.9048 21.7234 38.1171 21.7234 38.2233 21.7234C38.7541 21.7234 39.2849 21.2988 39.391 20.768C39.4972 20.5556 39.4972 20.2372 39.4972 20.0249C39.4972 17.2648 39.4972 14.3985 39.4972 11.6384C39.4972 9.09058 39.4972 6.43663 39.4972 3.88884C39.4972 3.35805 39.391 2.82726 38.8602 2.40263C38.5418 2.19031 38.1171 2.19031 37.6925 2.19031C32.9154 2.19031 28.0321 2.19031 23.255 2.19031Z" fill="#E0302F"/>
<path d="M12.5331 10.7894C11.6839 10.7894 10.8346 10.7894 9.98534 10.7894C9.02992 10.7894 8.39297 10.1525 8.39297 9.19703C8.39297 8.13545 8.39297 7.18003 8.39297 6.11845C8.39297 5.05687 9.02992 4.41992 10.0915 4.41992C11.6839 4.41992 13.3824 4.41992 14.9748 4.41992C15.9302 4.41992 16.6733 5.05687 16.6733 6.01229C16.6733 7.07387 16.6733 8.13545 16.6733 9.19703C16.6733 10.2586 15.9302 10.7894 14.9748 10.7894C14.2317 10.7894 13.3824 10.7894 12.5331 10.7894ZM12.6393 9.19703C13.3824 9.19703 14.1255 9.19703 14.8686 9.19703C15.1871 9.19703 15.2932 9.09087 15.2932 8.7724C15.2932 7.92314 15.2932 7.18003 15.2932 6.33077C15.2932 6.01229 15.1871 5.90613 14.8686 5.90613C13.3824 5.90613 12.0023 5.90613 10.5161 5.90613C10.0915 5.90613 9.98534 6.01229 9.98534 6.43692C9.98534 7.18003 9.98534 8.02929 9.98534 8.7724C9.98534 9.19703 10.0915 9.30319 10.5161 9.19703C11.1531 9.19703 11.8962 9.19703 12.6393 9.19703Z" fill="#E0302F"/>
<path d="M36.2063 11.957C36.2063 14.0801 35.6755 15.8848 34.6139 17.4772C34.5077 17.5833 34.5077 17.6895 34.4016 17.7956C34.0831 18.2203 33.6585 18.3264 33.34 18.008C33.0215 17.7956 32.9154 17.371 33.1277 16.8402C33.7646 15.8848 34.2954 14.8232 34.5077 13.6555C34.9324 11.5323 34.5077 9.62148 33.4461 7.71063C33.34 7.60448 33.2338 7.39216 33.1277 7.286C32.9154 6.86137 33.0215 6.43674 33.34 6.22442C33.6585 6.01211 34.0831 6.01211 34.4016 6.43674C35.1447 7.49832 35.6755 8.66606 35.9939 9.93995C36.1001 10.7892 36.1001 11.4262 36.2063 11.957Z" fill="#E0302F"/>
<path d="M32.5969 12.0631C32.5969 13.7617 32.0661 15.1417 31.0045 16.3095C30.7922 16.5218 30.5799 16.7341 30.1552 16.6279C29.5183 16.5218 29.306 15.7787 29.8368 15.354C30.3676 14.8233 30.7922 14.1863 31.0045 13.4432C31.4291 11.8508 31.0045 10.3646 29.8368 9.09073C29.7306 8.98457 29.6244 8.87841 29.5183 8.77225C29.1998 8.45378 29.1998 8.02915 29.4121 7.71067C29.6244 7.3922 30.1552 7.3922 30.4737 7.60451C31.4291 8.34762 32.0661 9.4092 32.4907 10.5769C32.4907 11.1077 32.5969 11.6385 32.5969 12.0631Z" fill="#E0302F"/>
<path d="M29.4123 12.063C29.3062 13.1246 28.8815 14.08 27.9261 14.7169C27.5015 15.0354 26.9707 14.9293 26.7584 14.6108C26.5461 14.1861 26.6522 13.8677 27.0769 13.5492C28.1384 12.6999 28.1384 11.5322 27.0769 10.7891C26.6522 10.4706 26.5461 10.046 26.7584 9.72751C26.9707 9.30288 27.3953 9.30288 27.9261 9.51519C28.8815 10.046 29.4123 11.0014 29.4123 12.063Z" fill="#E0302F"/>
</svg>
