<svg width="16" height="13" viewBox="0 0 16 13" fill="none" xmlns="http://www.w3.org/2000/svg">
<path d="M1.68965 5.96067C5.73987 4.23063 8.44065 3.09007 9.79199 2.53901C13.6504 0.965628 14.4521 0.692314 14.9746 0.683193C15.0896 0.681304 15.3466 0.70923 15.513 0.841655C15.6536 0.953472 15.6922 1.10452 15.7108 1.21054C15.7293 1.31655 15.7523 1.55805 15.734 1.74676C15.5249 3.9006 14.6202 9.12742 14.1599 11.5398C13.9652 12.5605 13.5817 12.9028 13.2104 12.9363C12.4036 13.0091 11.791 12.4135 11.0095 11.9113C9.7867 11.1254 9.0959 10.6362 7.90895 9.86938C6.53724 8.98314 7.42646 8.49605 8.2082 7.70001C8.41279 7.49169 11.9676 4.32161 12.0365 4.03403C12.0451 3.99807 12.053 3.864 11.9718 3.79321C11.8906 3.72242 11.7707 3.74663 11.6841 3.76588C11.5615 3.79317 9.60806 5.05903 5.82381 7.56347C5.26933 7.93675 4.7671 8.11863 4.31712 8.1091C3.82105 8.09859 2.86682 7.83411 2.15744 7.60804C1.28736 7.33075 0.595844 7.18415 0.65606 6.71323C0.687424 6.46795 1.03195 6.21709 1.68965 5.96067Z" fill="#0C1518"/>
</svg>
