<svg width="112" height="79" viewBox="0 0 112 79" fill="none" xmlns="http://www.w3.org/2000/svg">
<path d="M53.9003 0L36.3895 31.9495L48.6778 53.7612H85.5427L66.1886 19.7637L60.2493 30.8231L67.4174 43.2138L54.7196 43.3162L48.5754 33.6904L60.2493 9.93303L53.9003 0Z" fill="white"/>
<path d="M33.3174 37.6841L41.9192 53.7613H23.0772L33.3174 37.6841Z" fill="#D71D1D"/>
<path d="M6.6928 61.1343H9.86728L16.3186 77.8259H13.0417L11.7105 74.3442H4.95196L3.51833 77.8259H0.241455L6.6928 61.1343ZM8.33124 65.5376L6.07839 71.2721H10.5841L8.33124 65.5376Z" fill="#D41C1C"/>
<path d="M18.7762 61.1343H22.5651C25.0228 61.1343 26.7636 61.4415 27.9925 62.0559C29.1189 62.6703 30.1429 63.5919 30.8597 65.0256C31.5765 66.3568 31.9861 67.9952 31.9861 69.7361C31.9861 71.0673 31.7813 72.1937 31.3717 73.3202C30.9621 74.3442 30.3477 75.2658 29.6309 75.9826C28.9141 76.6994 28.0949 77.2114 27.1732 77.4162C26.2516 77.7235 24.818 77.8259 22.6675 77.8259H18.8786L18.7762 61.1343ZM21.9507 64.2063V74.7538H23.3844C24.818 74.7538 25.842 74.549 26.5588 74.2418C27.1732 73.9346 27.7877 73.3202 28.1973 72.6033C28.6069 71.7841 28.8117 70.8625 28.8117 69.7361C28.8117 67.9952 28.2997 66.5616 27.378 65.64C26.4564 64.7184 25.0228 64.3087 23.0771 64.3087L21.9507 64.2063Z" fill="#D41C1C"/>
<path d="M33.727 61.2368H37.0039L41.2024 73.0131L45.4009 61.2368H48.6777L42.636 77.826H39.5639L33.727 61.2368Z" fill="#D41C1C"/>
<path d="M54.1052 61.2368H50.9307V77.9284H54.1052V61.2368Z" fill="#D41C1C"/>
<path d="M73.0494 64.2062L70.7966 66.3567C69.2605 64.7182 67.6221 64.0014 65.6765 64.0014C64.038 64.0014 62.7068 64.5134 61.6828 65.6398C60.5563 66.7663 60.0443 68.0975 60.0443 69.6335C60.0443 70.76 60.2491 71.6816 60.7611 72.6032C61.2732 73.4224 61.8876 74.1392 62.8092 74.6513C63.7308 75.1633 64.6524 75.3681 65.7789 75.3681C66.7005 75.3681 67.5197 75.1633 68.3389 74.8561C69.0557 74.5489 69.9774 73.9344 70.899 73.0128L73.0494 75.2657C71.8206 76.4945 70.6942 77.3137 69.5677 77.7233C68.4413 78.2353 67.2125 78.4401 65.7789 78.4401C63.2188 78.4401 61.0684 77.6209 59.4299 75.9825C57.7915 74.344 56.9723 72.1936 56.9723 69.6335C56.9723 67.9951 57.3819 66.4591 58.0987 65.2302C58.8155 63.899 59.9419 62.875 61.3756 62.1582C62.8092 61.3389 64.2428 61.0317 65.8813 61.0317C67.2125 61.0317 68.5437 61.3389 69.875 61.9534C71.0014 62.2606 72.1278 63.0798 73.0494 64.2062Z" fill="#D41C1C"/>
<path d="M78.6817 61.2368H75.5073V77.9284H78.6817V61.2368Z" fill="#D41C1C"/>
<path d="M81.0368 61.2368H84.5185L87.5906 67.2786L90.6627 61.2368H94.0419L89.1266 70.6578V77.9284H85.9521V70.6578L81.0368 61.2368Z" fill="#D41C1C"/>
<path d="M101.722 61.2368H104.897L111.246 77.9284H107.969L106.638 74.4467H99.879L98.5477 77.9284H95.2709L101.722 61.2368ZM103.361 65.6401L101.108 71.3746H105.614L103.361 65.6401Z" fill="#D41C1C"/>
</svg>
