<svg width="40" height="40" viewBox="0 0 40 40" fill="none" xmlns="http://www.w3.org/2000/svg">
<path d="M19.6553 39.8777C15.3462 39.8777 10.9066 39.8777 6.5975 39.8777C3.46363 39.8777 0.982655 37.7885 0.329766 34.7852C0.199188 34.3935 0.199188 34.0017 0.199188 33.61C0.199188 27.4728 0.199188 21.2051 0.199188 15.0679C0.199188 14.1539 0.460344 13.3704 1.11323 12.7175C2.81074 10.6283 4.37768 8.66963 6.07519 6.71096C6.33635 6.44981 6.33635 6.31923 6.33635 6.05807C6.33635 5.27461 6.33635 4.62172 6.46692 3.83825C6.72808 2.14074 8.29501 0.834961 9.99252 0.834961C13.1264 0.834961 16.3908 0.834961 19.5247 0.834961C22.7892 0.834961 26.0536 0.834961 29.318 0.834961C31.0156 0.834961 32.5825 2.01016 32.9742 3.70767C33.1048 4.36056 33.1048 5.14403 33.1048 5.9275C33.1048 6.31923 33.2354 6.44981 33.366 6.71096C35.0635 8.66963 36.6304 10.6283 38.3279 12.587C38.8502 13.2399 39.242 14.1539 39.242 15.0679C39.242 21.2051 39.242 27.4728 39.242 33.61C39.242 36.7439 36.8916 39.3554 33.7577 39.7472C33.366 39.7472 32.9742 39.7472 32.5825 39.7472C28.2734 39.8777 23.9643 39.8777 19.6553 39.8777ZM19.6553 2.92421C18.2189 2.92421 16.7826 2.92421 15.3462 2.92421C13.6487 2.92421 11.9512 2.92421 10.2537 2.92421C9.20906 2.92421 8.42559 3.5771 8.42559 4.7523C8.42559 6.05807 8.42559 7.36385 8.42559 8.53905C8.42559 11.6729 8.42559 14.6762 8.42559 17.8101C8.42559 18.0712 8.42559 18.2018 8.68675 18.463C11.1677 20.2911 13.6487 22.2497 16.1297 24.0778C16.3908 24.2084 16.3908 24.2084 16.652 24.0778C17.0437 23.8167 17.3049 23.4249 17.6966 23.1638C19.0024 22.1191 20.6999 22.1191 22.0057 23.1638C22.2668 23.4249 22.6586 23.6861 22.9197 23.9472C23.1809 24.2084 23.3115 24.0778 23.442 23.9472C25.923 22.1191 28.2734 20.2911 30.7544 18.3324C31.0156 18.2018 31.0156 17.9407 31.0156 17.6795C31.0156 16.2431 31.0156 14.8068 31.0156 13.3704C31.0156 10.3671 31.0156 7.36385 31.0156 4.22998C31.0156 3.44652 30.6238 2.92421 29.9709 2.66305C29.7098 2.53247 29.318 2.53247 29.0569 2.53247C25.923 2.92421 22.7892 2.92421 19.6553 2.92421ZM19.6553 37.7885C23.9643 37.7885 28.1428 37.7885 32.4519 37.7885C33.1048 37.7885 33.7577 37.7885 34.28 37.5273C34.8023 37.3968 34.8023 37.2662 34.4106 37.005C29.8404 33.0877 25.2701 29.0398 20.6999 25.1224C20.047 24.6001 19.3941 24.6001 18.7412 25.1224C16.7826 26.8199 14.6933 28.648 12.7347 30.3455C10.1231 32.5654 7.51155 34.9158 4.89999 37.1356C4.63883 37.3967 4.63883 37.3968 5.03057 37.6579C5.68346 37.9191 6.33635 37.9191 6.98923 37.9191C11.1677 37.7885 15.4768 37.7885 19.6553 37.7885ZM2.41901 16.3737C2.28843 16.5043 2.28843 16.6349 2.28843 16.7655C2.28843 22.3803 2.28843 27.8646 2.28843 33.4794C2.28843 34.1323 2.41901 34.6546 2.68017 35.3075C2.94132 36.091 3.0719 36.091 3.59421 35.5687C7.25039 32.4348 10.776 29.3009 14.4322 26.1671C14.6933 25.9059 14.6933 25.9059 14.4322 25.6447C10.5148 22.6415 6.5975 19.6382 2.68017 16.6349C2.54959 16.3737 2.41901 16.3737 2.41901 16.3737ZM37.1527 25.1224C37.1527 22.2497 37.1527 19.5076 37.1527 16.6349C37.1527 16.5043 37.1527 16.3737 37.1527 16.3737C37.0221 16.3737 36.8916 16.5043 36.8916 16.5043C32.9742 19.5076 29.0569 22.5109 25.009 25.5142C24.7478 25.6447 24.7478 25.7753 25.009 26.0365C26.7065 27.4728 28.2734 28.9092 29.9709 30.3455C32.0602 32.1736 34.1494 33.8711 36.1081 35.6992C36.3692 35.9604 36.4998 35.8298 36.6304 35.5687C37.0221 34.9158 37.1527 34.1323 37.1527 33.3488C37.1527 30.6067 37.1527 27.8646 37.1527 25.1224ZM33.1048 9.71425C33.1048 9.84483 33.1048 9.84483 33.1048 9.97541C33.1048 12.0647 33.1048 14.2845 33.1048 16.3737C33.1048 16.5043 33.1048 16.6349 33.2354 16.6349C33.366 16.6349 33.366 16.6349 33.4965 16.5043C34.5412 15.7208 35.4552 14.9374 36.4998 14.1539C36.761 14.0233 36.761 13.8927 36.4998 13.7622C35.8469 12.9787 35.0635 12.0647 34.4106 11.2812C34.0188 10.7589 33.6271 10.2366 33.1048 9.71425ZM6.20577 9.71425C6.20577 9.84483 6.20577 9.84483 6.20577 9.71425C5.03057 11.1506 3.98594 12.4564 2.81074 13.6316C2.81074 13.8927 2.81074 14.0233 2.94132 14.1539C3.98594 14.9374 4.89999 15.7208 5.94461 16.3737C6.07519 16.5043 6.07519 16.6349 6.20577 16.5043C6.33635 16.5043 6.33635 16.2431 6.33635 16.1126C6.33635 14.0233 6.33635 12.0647 6.33635 9.97541C6.33635 9.97541 6.33635 9.84483 6.20577 9.71425Z" fill="#EC2327"/>
<path d="M23.181 12.195C23.181 12.7174 23.181 13.2397 23.181 13.6314C23.181 14.2843 23.5728 14.676 24.0951 14.676C24.6174 14.676 25.1397 14.2843 25.2703 13.762C25.662 10.1058 23.4422 7.49424 20.3083 7.10251C16.7827 6.71078 14.1712 9.45291 14.1712 12.3256C14.0406 15.1983 16.1298 17.6793 18.7414 18.071C19.6554 18.2016 20.7 18.2016 21.6141 17.8099C21.7447 17.8099 21.8752 17.6793 22.0058 17.6793C22.5281 17.5487 23.0504 17.8099 23.3116 18.3322C23.4422 18.8545 23.3116 19.3768 22.7893 19.638C21.6141 20.1603 20.4389 20.4214 19.2637 20.2909C17.305 20.1603 15.6075 19.2462 14.1712 17.8099C12.996 16.5041 12.3431 15.0678 12.2125 13.3702C11.8208 9.45291 14.5629 5.92731 18.2191 5.14384C22.6587 4.2298 26.576 7.23309 27.3595 11.281C27.4901 12.195 27.4901 12.9785 27.4901 13.8926C27.2289 15.4595 25.9232 16.6347 24.3562 16.7653C23.4422 16.7653 22.6587 16.3735 22.0058 15.7206C21.8752 15.4595 21.7447 15.4595 21.4835 15.5901C19.2637 16.7653 16.5216 15.3289 16.391 12.7174C16.2604 10.4975 18.0885 9.06118 19.786 9.06118C20.4389 9.06118 20.9612 9.19176 21.4835 9.45291C21.6141 9.58349 21.7447 9.58349 21.8752 9.45291C22.6587 9.19176 23.3116 9.58349 23.4422 10.4975C23.181 11.1504 23.181 11.6727 23.181 12.195ZM21.0918 12.7174C21.0918 11.9339 20.5695 11.281 19.786 11.281C19.0025 11.281 18.3496 11.9339 18.3496 12.7174C18.3496 13.5008 18.872 14.0231 19.786 14.0231C20.4389 14.0231 21.0918 13.5008 21.0918 12.7174Z" fill="#EC2327"/>
</svg>
