<svg width="14" height="14" viewBox="0 0 14 14" fill="none" xmlns="http://www.w3.org/2000/svg">
<g clip-path="url(#clip0_61_498)">
<path d="M13.2856 13.0613V8.22623C13.2856 5.63545 11.9028 4.42996 10.059 4.42996C8.57113 4.42996 7.90423 5.24847 7.53277 5.82302V4.62815H4.72949C4.76668 5.41969 4.72949 13.0613 4.72949 13.0613H7.53277V8.35169C7.53277 8.10037 7.55075 7.84824 7.62512 7.66844C7.8274 7.16458 8.28876 6.64316 9.06272 6.64316C10.0774 6.64316 10.4828 7.41631 10.4828 8.54988V13.0617L13.2856 13.0613ZM1.77624 3.47701C2.75331 3.47701 3.36259 2.8289 3.36259 2.01938C3.34461 1.1923 2.75371 0.562988 1.79504 0.562988C0.83637 0.562988 0.209106 1.19189 0.209106 2.01938C0.209106 2.8289 0.817573 3.47701 1.75867 3.47701H1.77624ZM3.17788 13.0613V4.62815H0.375015V13.0613H3.17788Z" fill="black"/>
</g>
<defs>
<clipPath id="clip0_61_498">
<rect width="13.0765" height="13.0765" fill="white" transform="translate(0.209167 0.274414)"/>
</clipPath>
</defs>
</svg>
