<svg width="41" height="43" viewBox="0 0 41 43" fill="none" xmlns="http://www.w3.org/2000/svg">
<path d="M28.5139 33.6155C27.4404 32.9489 26.6353 32.149 26.2328 30.8158C26.0986 30.9492 26.0986 31.0825 25.9644 31.2158C25.4277 31.7491 24.8909 32.0157 24.0858 31.7491C21.4022 31.0825 18.7185 30.4159 16.0349 29.8826C14.9614 29.616 14.4247 28.5494 14.5588 27.4829C15.6323 23.0833 16.7058 18.6838 17.7792 14.2843C18.1818 12.6845 18.5843 11.218 18.9869 9.61814C19.2552 8.6849 19.792 8.15163 20.7313 8.01831C20.9996 8.01831 21.1338 8.01831 21.4022 8.15163C24.0858 8.81822 26.6353 9.3515 29.319 10.0181C30.5266 10.2847 31.0633 11.218 30.795 12.4178C30.2582 14.6843 29.7215 16.8174 29.1848 19.0838C29.1848 19.3504 29.1848 19.4837 29.4531 19.6171C30.2582 20.017 30.9292 20.417 31.6001 20.6836C32.271 20.9502 32.5394 21.4835 32.8077 22.1501C33.0761 22.95 33.2103 23.6166 33.2103 24.4165C33.3445 26.283 33.3445 28.1495 33.4786 30.0159C33.4786 30.4159 33.4786 30.8158 33.4786 31.3491C33.4786 32.149 33.4786 32.8156 33.4786 33.6155C33.4786 33.7489 33.4786 33.7489 33.3445 33.7489C33.2103 33.7489 33.0761 33.7489 32.8077 33.7489C32.4052 33.6155 32.5394 33.2156 32.4052 32.9489C32.4052 31.8824 32.271 30.8158 32.271 29.7493C32.271 28.0161 32.1368 26.283 32.0026 24.4165C32.0026 23.7499 31.8684 23.0833 31.6001 22.5501C31.4659 22.2834 31.3317 21.8835 30.9292 21.7502C30.2582 21.3502 29.4531 20.9502 28.7822 20.6836C28.648 20.5503 28.5139 20.6836 28.5139 20.8169C28.3797 21.4835 28.2455 22.0168 28.1113 22.6834C28.1113 22.8167 28.1113 22.95 28.2455 23.0833C28.5139 23.4833 28.7822 23.7499 29.1848 24.1499C29.5873 24.6832 29.7215 24.5499 29.0506 25.0831C28.9164 25.2164 28.7822 25.2164 28.648 25.0831C27.4404 23.6166 26.2328 22.2834 25.1593 20.8169C24.8909 20.417 24.6226 20.017 24.22 19.7504C23.9516 19.4837 23.5491 19.4837 23.2807 19.7504C23.0124 20.017 22.8782 20.2836 23.0124 20.6836C23.1465 20.9502 23.2807 21.2169 23.4149 21.4835C24.4884 23.35 25.5618 25.2164 26.5011 26.9496C26.6353 27.2162 26.7695 27.4829 26.7695 27.8828C26.9037 28.4161 26.7695 28.9494 26.7695 29.616C26.9037 31.0825 27.3062 32.2823 28.7822 33.0823C29.1848 33.3489 29.1848 33.6155 28.7822 34.0155C28.7822 33.6155 28.648 33.6155 28.5139 33.6155ZM22.0731 20.017C22.0731 19.3504 22.4756 18.8171 23.0124 18.5505C23.5491 18.2839 24.22 18.2839 24.7567 18.5505C25.0251 18.6838 25.2935 18.9505 25.4277 19.0838C26.0986 19.8837 26.7695 20.5503 27.3062 21.3502C27.3062 21.4835 27.4404 21.6168 27.5746 21.4835C27.7088 21.4835 27.7088 21.3502 27.7088 21.2169C28.2455 18.8171 28.9164 16.4174 29.4531 14.0177C29.4531 13.751 29.4531 13.751 29.1848 13.6177C28.3797 13.4844 27.5746 13.2177 26.6353 13.0844C24.3542 12.5512 22.0731 12.0179 19.9262 11.4846C19.6578 11.4846 19.6578 11.4846 19.5236 11.7512C19.2552 12.9511 18.9869 14.2843 18.5843 15.4842C17.7792 18.8171 16.9741 22.2834 16.169 25.6164C16.0349 26.0164 16.0349 26.0164 16.4374 26.1497C18.4501 26.683 20.5971 27.0829 22.6098 27.6162C23.6833 27.8828 24.6226 28.1495 25.696 28.4161C25.9644 28.4161 26.0986 28.4161 26.0986 28.1495C26.0986 27.8828 26.0986 27.6162 25.9644 27.3496C25.5618 26.683 25.2935 26.0164 24.8909 25.3498C24.0858 23.8833 23.2807 22.5501 22.4756 21.0836C22.2073 20.6836 22.0731 20.417 22.0731 20.017ZM24.4884 30.8158C25.0251 30.8158 25.2935 30.5492 25.4277 30.1492C25.4277 29.8826 25.5618 29.7493 25.5618 29.4827C25.5618 29.3493 25.5618 29.216 25.4277 29.216C25.1593 29.216 24.8909 29.0827 24.6226 29.0827C21.9389 28.4161 19.2552 27.7495 16.5716 27.0829C15.7665 26.9496 15.7665 26.9496 15.6323 27.7495C15.4981 28.4161 15.7665 28.8161 16.4374 28.9494C18.7185 29.4827 20.8654 30.0159 23.1465 30.5492C23.6833 30.6825 24.0858 30.6825 24.4884 30.8158ZM20.9996 8.95154C20.4629 8.95154 20.0603 9.21818 19.9262 9.61814C19.9262 9.75146 19.792 10.0181 19.792 10.1514C19.6578 10.5514 19.6578 10.5514 20.0603 10.5514C23.0124 11.218 25.9644 12.0179 28.9164 12.6845C29.5873 12.9511 29.5873 12.9511 29.8557 12.2845C29.9899 11.4846 29.8557 11.0846 29.0506 10.9513C27.0379 10.4181 24.8909 10.0181 22.8782 9.48482C22.0731 9.21818 21.5364 9.08486 20.9996 8.95154Z" fill="#EC2628"/>
<path d="M15.7664 13.7509C15.7664 15.2174 15.3639 16.6839 14.693 18.0171C14.693 18.0171 14.693 18.0171 14.693 18.1504C14.5588 18.5504 14.2904 18.6837 14.022 18.5504C13.7537 18.417 13.6195 18.1504 13.8879 17.7505C14.4246 16.8172 14.693 15.884 14.8271 14.9508C15.0955 13.2176 14.8271 11.6178 14.022 10.1513C14.022 10.018 13.8879 9.88464 13.8879 9.75132C13.7537 9.48468 13.8879 9.21804 14.1562 9.21804C14.1562 8.95141 14.4246 8.95141 14.5588 9.21804C14.693 9.35136 14.693 9.35136 14.693 9.48468C15.4981 10.8179 15.7664 12.2844 15.7664 13.7509Z" fill="#EC2628"/>
<path d="M13.7537 13.6175C13.7537 14.9506 13.4854 16.0172 12.8144 17.0837C12.5461 17.4837 12.4119 17.617 12.1435 17.3504C11.8752 17.2171 11.8752 16.9504 12.0093 16.5505C12.5461 15.6172 12.8144 14.684 12.8144 13.6175C12.8144 12.6842 12.5461 11.751 12.1435 10.8178C12.1435 10.6844 12.0093 10.5511 12.0093 10.4178C12.0093 10.1512 12.1435 10.0178 12.4119 9.88452C12.4119 9.88452 12.6803 10.0178 12.8144 10.2845C13.217 10.9511 13.4854 11.6177 13.6195 12.2843C13.6195 12.8175 13.6195 13.2175 13.7537 13.6175Z" fill="#EC2628"/>
<path d="M11.7411 13.7509C11.7411 14.6842 11.4727 15.4841 11.0701 16.284C10.936 16.5506 10.6676 16.6839 10.3992 16.5506C9.99668 16.4173 9.99668 16.0173 10.1309 15.7507C10.936 14.4175 10.936 12.951 10.1309 11.6178C9.99668 11.3512 9.99668 11.0845 10.265 10.9512C10.5334 10.8179 10.8018 10.9512 10.936 11.2179C11.4727 12.0178 11.7411 12.8177 11.7411 13.7509Z" fill="#EC2628"/>
<path d="M9.72819 13.7508C9.72819 14.4174 9.594 14.9507 9.19145 15.484C9.05727 15.6173 8.78891 15.7506 8.52054 15.6173C8.25217 15.484 8.25217 15.2173 8.38636 14.9507C8.92309 14.1508 8.92309 13.3509 8.38636 12.5509C8.25217 12.2843 8.25217 12.0177 8.52054 11.8844C8.78891 11.6177 9.05727 11.751 9.19145 12.0177C9.594 12.5509 9.72819 13.0842 9.72819 13.7508Z" fill="#EC2628"/>
<path d="M20.8653 28.9493C20.8653 29.2159 20.7312 29.3492 20.4628 29.3492C20.3286 29.3492 20.0602 29.2159 20.0602 28.9493C20.0602 28.6826 20.1944 28.5493 20.4628 28.5493C20.7312 28.5493 20.8653 28.6826 20.8653 28.9493Z" fill="#EC2628"/>
<path d="M23.8173 10.1511C23.9515 10.1511 24.0857 10.2844 24.3541 10.2844C24.8908 10.2844 25.5617 10.4178 26.0985 10.6844C26.3668 10.8177 26.6352 10.951 26.501 11.2177C26.3668 11.4843 26.2326 11.6176 25.8301 11.6176C25.1592 11.4843 24.4883 11.351 23.6832 11.0844C23.4148 10.951 23.2806 10.8177 23.4148 10.5511C23.4148 10.2844 23.549 10.1511 23.8173 10.1511Z" fill="#EC2628"/>
<path d="M37.3698 35.0818H4.62915V0.952148H37.3698V35.0818ZM5.8368 33.8819H36.1621V2.15202H5.8368V33.8819Z" fill="#EC2628"/>
<path d="M40.9928 42.0145H0.60376V33.8821H40.9928V42.0145ZM1.81141 40.8147H39.7852V35.0819H1.81141V40.8147Z" fill="#EC2628"/>
</svg>
