<svg width="11" height="11" viewBox="0 0 11 11" fill="none" xmlns="http://www.w3.org/2000/svg">
<path d="M2.73814 0.520508C3.00528 0.609555 3.18338 0.787649 3.36147 0.965742C3.71766 1.32193 4.16289 1.76716 4.51908 2.12335C4.87527 2.47954 4.87527 2.92478 4.51908 3.37001C4.51908 3.45906 4.34099 3.5481 4.25194 3.5481C3.9848 3.63715 3.80671 3.81524 3.71766 4.08239C3.62861 4.26048 3.62861 4.43857 3.71766 4.61667C3.71766 5.0619 3.9848 5.41809 4.25194 5.77428C4.60813 6.21951 5.14241 6.66475 5.67669 6.93189C5.85479 7.02093 6.12193 7.10998 6.38907 7.10998C6.74526 7.10998 6.92335 6.93189 7.10144 6.66475C7.10144 6.66475 7.10144 6.5757 7.19049 6.48665C7.36858 5.86332 8.17001 5.68523 8.61524 6.13047C9.06048 6.5757 9.50571 7.02093 9.95094 7.46617C10.04 7.55522 10.129 7.64426 10.129 7.82236C10.129 7.9114 10.129 8.00045 10.2181 8.00045C10.2181 8.0895 10.2181 8.0895 10.2181 8.17854C10.2181 8.44569 10.04 8.71283 9.77285 8.89092C9.59476 9.15806 9.32762 9.4252 9.06048 9.69234C8.88238 9.87044 8.70429 9.95948 8.52619 10.0485C8.43715 10.0485 8.43715 10.0485 8.3481 10.1376C8.17001 10.1376 7.99191 10.1376 7.81382 10.1376C7.63572 10.1376 7.54668 10.0485 7.36858 10.0485C6.65621 9.78139 6.03288 9.4252 5.40955 9.06901C4.60813 8.53473 3.80671 7.9114 3.18338 7.19903C2.471 6.48665 1.93672 5.77428 1.40244 4.88381C1.1353 4.43857 0.957204 3.99334 0.77911 3.45906C0.77911 3.28096 0.690063 3.01382 0.690063 2.83573C0.690063 2.74668 0.690063 2.56859 0.690063 2.47954V2.39049C0.690063 2.12335 0.868157 1.85621 1.04625 1.58907C1.31339 1.41098 1.58053 1.14384 1.75863 0.876696C1.93672 0.698602 2.11481 0.609555 2.38196 0.520508C2.471 0.520508 2.6491 0.520508 2.73814 0.520508Z" fill="#F1F2F2"/>
</svg>
