<svg width="36" height="52" viewBox="0 0 36 52" fill="none" xmlns="http://www.w3.org/2000/svg">
<path d="M35.7595 21.4817C35.7595 27.1503 35.7595 32.6772 35.7595 38.3459C35.7595 40.1882 34.6269 41.7471 32.7864 42.1722C32.5033 42.3139 32.0786 42.1722 31.7954 42.1722C26.6987 42.1722 21.602 42.1722 16.5053 42.1722C15.939 42.1722 15.6558 42.3139 15.5142 42.8808C14.8063 45.1483 13.5322 46.8488 11.6917 48.266C11.4085 48.5494 11.1254 48.6912 10.7007 48.6912C10.2759 48.6912 9.99279 48.4077 9.85121 47.9826C9.85121 47.4157 9.99279 47.1323 10.4175 46.8488C11.4085 46.1403 12.258 45.1483 12.9659 44.0145C13.6737 42.7391 14.0985 41.4636 14.0985 40.0465C14.0985 36.9287 15.2311 34.0944 16.93 31.4018C17.4963 30.5515 18.0626 29.5595 18.6289 28.7092C19.1952 27.8589 19.4783 26.8669 19.4783 25.7332C19.4783 25.4497 19.4783 25.1663 19.3368 25.0246C18.912 24.0326 18.2042 24.0326 17.6379 24.7411C16.6468 26.0166 15.6558 27.292 14.8063 28.5675C12.6827 31.4018 10.5591 34.0944 8.57703 36.9287C8.43546 37.0704 8.43546 37.2122 8.29388 37.2122C7.86915 37.779 7.30285 37.779 6.87813 37.4956C6.4534 37.2122 6.31182 36.6453 6.73655 36.0784C7.86915 34.5195 9.00176 32.9607 10.1344 31.4018C10.4175 30.9766 10.5591 30.5515 10.5591 30.1263C10.5591 21.6234 10.5591 13.2621 10.5591 4.75918C10.5591 3.05859 11.267 1.78314 12.8243 0.932846C13.1074 0.79113 13.6737 0.649414 14.24 0.649414C20.1862 0.649414 25.9908 0.649414 31.937 0.649414C34.2022 0.649414 35.7595 2.35001 35.7595 4.47575C35.7595 10.1444 35.7595 15.813 35.7595 21.4817ZM12.3996 28.1423C12.5411 28.0006 12.6827 27.8589 12.6827 27.8589C13.8153 26.4417 14.9479 24.8829 15.939 23.4657C16.6468 22.4737 17.6379 22.0485 18.912 22.332C20.0446 22.6154 20.7525 23.324 21.0357 24.4577C21.602 26.5834 21.3188 28.4258 20.0446 30.1263C18.0626 32.9607 16.2221 35.9367 16.0805 39.763C16.0805 40.3299 16.2221 40.4716 16.6468 40.4716C21.602 40.4716 26.4155 40.4716 31.3707 40.4716C32.6449 40.4716 33.7775 39.9048 33.6359 38.2042C33.6359 30.4098 33.6359 22.6154 33.6359 14.821C33.6359 11.4198 33.6359 8.16036 33.6359 4.75918C33.6359 3.62545 33.0696 3.05859 32.0786 2.91687C31.0875 2.77515 29.9549 2.91687 28.9639 2.91687C28.6807 2.91687 28.6807 3.05859 28.5392 3.34202C28.256 3.90888 27.9729 4.61746 27.6897 5.18433C27.4066 5.75119 27.1234 5.89291 26.4155 5.89291C24.1503 5.89291 21.8851 5.89291 19.4783 5.89291C18.912 5.89291 18.4873 5.60948 18.3457 5.18433C18.0626 4.61746 17.7794 4.0506 17.4963 3.34202C17.3547 3.05859 17.0716 2.91687 16.7884 2.91687C16.0805 2.91687 15.3727 2.91687 14.6648 2.91687C13.1074 2.91687 12.3996 3.62545 12.3996 5.18433C12.3996 12.6953 12.3996 20.2062 12.3996 27.7172C12.3996 27.5755 12.3996 27.7172 12.3996 28.1423ZM23.0177 2.49172C22.0267 2.49172 21.1772 2.49172 20.1862 2.49172C20.0446 2.49172 19.6199 2.35001 19.6199 2.63344C19.6199 2.91687 19.7615 3.2003 19.9031 3.34202C20.1862 3.62545 20.3278 3.48373 20.4694 3.48373C22.1683 3.48373 23.8672 3.48373 25.4245 3.48373C25.5661 3.48373 25.7077 3.48373 25.7077 3.48373C26.1324 3.48373 26.274 3.05859 26.274 2.77515C26.274 2.35001 25.8492 2.63344 25.7077 2.63344C24.8582 2.49172 24.0088 2.49172 23.0177 2.49172Z" fill="#EC2527"/>
<path d="M0.0827026 43.0226C0.0827026 40.7551 0.0827026 38.3459 0.0827026 36.0785C0.0827026 34.5196 0.507429 33.1024 1.21531 31.6853C3.05579 28.7092 4.75469 25.7332 6.59517 22.7572C6.87832 22.332 7.0199 22.0486 7.5862 22.0486C8.29408 22.0486 8.7188 22.6154 8.57723 23.324C8.57723 23.6075 8.43565 23.7492 8.29408 23.8909C6.59517 26.7252 4.89627 29.5595 3.19736 32.3939C2.48949 33.5276 2.20633 34.6613 2.20633 36.0785C2.20633 40.7551 2.20633 45.5734 2.20633 50.2501C2.20633 50.5335 2.20633 50.8169 2.20633 51.1004C1.78161 51.6672 1.49846 51.809 0.932155 51.809C0.365854 51.809 0.0827026 51.3838 0.0827026 50.9587C0.0827026 50.6752 0.0827026 50.5335 0.0827026 50.2501C0.0827026 47.8409 0.0827026 45.4317 0.0827026 43.0226Z" fill="#EC2527"/>
<path d="M20.611 44.0146C21.3189 44.0146 21.7436 44.5815 21.4604 45.2901C21.3189 45.7152 21.0357 46.1404 20.7526 46.5655C20.0447 47.4158 19.7615 48.2661 19.9031 49.3999C19.9031 49.825 19.9031 50.3919 19.9031 50.817C19.9031 51.5256 19.4784 51.809 18.9121 51.809C18.3458 51.809 17.9211 51.3839 17.9211 50.817C17.9211 50.1084 17.9211 49.2581 17.9211 48.5496C17.9211 46.849 19.0537 45.7152 19.9031 44.4398C20.0447 44.0146 20.3278 44.0146 20.611 44.0146Z" fill="#EC2527"/>
<path d="M28.3976 19.2141C27.6897 19.2141 26.9818 19.2141 26.2739 19.2141C25.5661 19.2141 25.1413 18.9307 25.1413 18.2221C25.1413 16.805 25.1413 15.3878 25.1413 13.8289C25.1413 13.2621 25.5661 12.8369 26.2739 12.8369C27.6897 12.8369 29.1054 12.8369 30.5212 12.8369C31.2291 12.8369 31.6538 13.2621 31.6538 13.9706C31.6538 15.3878 31.6538 16.805 31.6538 18.2221C31.6538 18.9307 31.2291 19.2141 30.5212 19.2141C29.6717 19.2141 29.1054 19.2141 28.3976 19.2141ZM28.3976 17.3718C29.8133 17.3718 29.5302 17.5135 29.5302 16.0964C29.5302 14.6792 29.6717 14.8209 28.256 14.8209C26.8402 14.8209 27.1234 14.6792 27.1234 16.0964C27.1234 17.5135 26.9818 17.2301 28.3976 17.3718Z" fill="#EC2527"/>
<path d="M28.3976 23.6075C29.1054 23.6075 29.6717 23.6075 30.3796 23.6075C31.0875 23.6075 31.5122 23.891 31.5122 24.5995C31.5122 25.3081 31.5122 26.1584 31.5122 26.867C31.5122 27.4339 31.5122 28.1424 31.5122 28.7093C31.5122 29.5596 31.0875 29.843 30.238 29.843C28.9639 29.843 27.5481 29.843 26.2739 29.843C25.4245 29.843 25.1413 29.4179 25.1413 28.7093C25.1413 27.4339 25.1413 26.1584 25.1413 24.7413C25.1413 23.891 25.5661 23.4658 26.4155 23.4658C27.1234 23.6075 27.6897 23.6075 28.3976 23.6075ZM29.6717 26.7253C29.6717 25.4498 29.6717 25.4498 28.3976 25.4498C26.9818 25.4498 27.265 25.3081 27.265 26.7253C27.265 28.1424 27.1234 28.0007 28.5391 28.0007C29.8133 27.859 29.5302 28.1424 29.6717 26.7253Z" fill="#EC2527"/>
<path d="M17.7795 19.214C17.0716 19.214 16.3637 19.214 15.6559 19.214C14.948 19.214 14.6648 18.9306 14.6648 18.222C14.6648 16.8048 14.6648 15.3877 14.6648 13.9705C14.6648 13.2619 15.0896 12.9785 15.6559 12.9785C17.0716 12.9785 18.4874 12.9785 19.9031 12.9785C20.611 12.9785 21.0357 13.4037 21.0357 14.1122C21.0357 15.5294 21.0357 16.9466 21.0357 18.222C21.0357 18.9306 20.611 19.214 19.9031 19.214C19.0537 19.214 18.3458 19.214 17.7795 19.214ZM17.7795 17.3717C19.1952 17.3717 18.9121 17.5134 18.9121 16.0963C18.9121 14.8208 19.0537 14.9625 17.7795 14.9625C16.3637 14.9625 16.5053 14.8208 16.5053 16.238C16.5053 17.5134 16.3637 17.23 17.7795 17.3717Z" fill="#EC2527"/>
<path d="M22.0267 24.5996C22.0267 23.6076 22.0267 22.6156 22.0267 21.4819C22.0267 20.6316 22.3099 20.3481 23.1593 20.3481C25.2829 20.3481 27.265 20.3481 29.3886 20.3481C30.0965 20.3481 30.5212 20.7733 30.5212 21.3402C30.5212 21.907 30.0965 22.3322 29.3886 22.3322C27.8313 22.3322 26.1324 22.3322 24.5751 22.3322C24.0088 22.3322 23.8672 22.4739 23.8672 23.0408C23.8672 24.4579 23.8672 25.8751 23.8672 27.2922C23.8672 27.4339 23.8672 27.7174 23.8672 27.8591C23.8672 28.5677 23.4425 28.9928 22.8762 28.9928C22.3099 28.9928 22.0267 28.5677 22.0267 27.8591C22.0267 26.7254 22.0267 25.7334 22.0267 24.5996Z" fill="#EC2527"/>
<path d="M22.0267 16.0964C22.0267 15.3878 22.0267 14.6792 22.0267 13.9706C22.0267 13.2621 22.4514 12.8369 22.8762 12.8369C23.4425 12.8369 23.8672 13.1203 23.8672 13.8289C24.0088 15.3878 24.0088 16.805 23.8672 18.3638C23.8672 18.9307 23.4425 19.3559 22.8762 19.2141C22.3099 19.2141 22.0267 18.789 22.0267 18.2221C22.0267 17.5135 22.0267 16.805 22.0267 16.0964Z" fill="#EC2527"/>
</svg>
