<svg width="114" height="75" viewBox="0 0 114 75" fill="none" xmlns="http://www.w3.org/2000/svg">
<path d="M77.2395 13.0024C76.2562 10.5328 74.7813 8.28767 72.8594 6.35686C70.9375 4.42604 68.7474 2.94426 66.2445 1.9564C63.8756 0.968539 61.328 0.474609 58.7357 0.474609C56.1433 0.474609 53.5957 1.01344 51.2269 2.0013C48.7686 2.98916 46.5338 4.47095 44.612 6.40176C42.6901 8.33257 41.2151 10.5328 40.2318 13.0474C39.2485 15.4272 38.7569 17.9866 38.7569 20.591C38.7569 23.1954 39.2485 25.7099 40.2318 28.1346C41.1704 30.4696 42.556 32.58 44.2991 34.421V26.4283C43.5393 24.5873 43.1817 22.6116 43.1817 20.5461C43.1817 18.4357 43.584 16.4151 44.3438 14.574C45.1036 12.6881 46.2657 10.9818 47.7406 9.50004C50.7799 6.44666 54.7578 4.91997 58.7357 4.91997C62.7135 4.91997 66.6914 6.44666 69.7307 9.50004C72.6806 12.4636 74.2896 16.3701 74.2896 20.5461C74.2896 24.4526 72.8594 28.1346 70.2671 31.0084L70.4458 31.2329L73.1276 34.421C74.8707 32.58 76.2562 30.4696 77.1948 28.0897C78.1781 25.7099 78.6698 23.1504 78.6698 20.5461C78.6698 17.9417 78.1781 15.4272 77.2395 13.0024Z" fill="#4273A8"/>
<path d="M65.2611 29.8861C65.7975 29.5269 66.2891 29.0779 66.736 28.6289C67.0042 28.3594 67.2724 28.09 67.4959 27.7757C69.1496 25.7551 70.0435 23.1956 70.0435 20.5464C70.0435 17.493 68.8814 14.6192 66.736 12.4639C64.5907 10.3086 61.7302 9.14111 58.6909 9.14111C55.6516 9.14111 52.7911 10.3086 50.6457 12.4639C49.2602 13.8559 48.2322 15.5622 47.7405 17.4481C47.4724 18.436 47.3383 19.4687 47.3383 20.5464V31.2332V37.4747L51.7184 41.8751V35.6786V29.5718V25.4857V23.2405V20.5464C51.7184 19.4238 51.9866 18.3911 52.4336 17.4481C53.5509 15.1132 55.9645 13.5416 58.6909 13.5416C62.5347 13.5416 65.6634 16.6848 65.6634 20.5464C65.6634 21.9384 65.2611 23.2405 64.546 24.3182C63.9649 25.2163 63.2498 25.9347 62.3559 26.4735C61.2832 27.1471 60.0318 27.5512 58.6909 27.5512C58.2439 27.5512 57.8417 27.5063 57.3947 27.4165L61.0151 31.6822L64.9482 36.3072L67.8087 39.6749L70.9374 36.5317L68.0769 33.164L65.2611 29.8861Z" fill="#3149AA"/>
<path d="M0.855286 74.1154V55.1216H9.57087C12.4314 55.1216 14.6214 55.7502 16.1858 56.9626C17.7501 58.175 18.5546 59.8813 18.5546 62.0366C18.5546 63.4286 18.1971 64.6859 17.4819 65.6737C16.7668 66.7065 15.7388 67.4698 14.398 68.0086C13.0571 68.5475 11.4928 68.8169 9.66026 68.8169H3.49231L5.59299 66.8861V74.1154H0.855286ZM5.59299 67.38L3.49231 65.3145H9.43678C10.9117 65.3145 11.9844 65.0002 12.6995 64.4164C13.4147 63.8327 13.7722 63.0244 13.7722 61.9917C13.7722 60.9589 13.4147 60.1058 12.6995 59.5669C11.9844 58.9832 10.867 58.7138 9.43678 58.7138H3.49231L5.59299 56.6034V67.38ZM13.8616 74.1154L8.76635 67.2004H13.8169L19.0016 74.1154H13.8616Z" fill="#3149AA"/>
<path d="M29.7732 74.3393C27.9853 74.3393 26.421 74.0249 25.0355 73.3514C23.6946 72.6779 22.6219 71.8247 21.9068 70.6572C21.147 69.5347 20.7894 68.2325 20.7894 66.7956C20.7894 65.3138 21.147 64.0117 21.9068 62.8891C22.6219 61.7665 23.6499 60.8685 24.9014 60.2398C26.1528 59.6112 27.5831 59.2969 29.1921 59.2969C30.7118 59.2969 32.0973 59.6112 33.3488 60.1949C34.6002 60.8236 35.5835 61.6767 36.2987 62.7993C37.0138 63.9218 37.3714 65.2689 37.3714 66.8405C37.3714 67.0201 37.3714 67.1997 37.3267 67.3794C37.3267 67.6039 37.282 67.7835 37.282 67.9631H24.5438V65.4934H34.9131L33.17 66.2119C33.17 65.4485 32.9912 64.775 32.6783 64.2362C32.3655 63.6973 31.8738 63.2483 31.2928 62.934C30.7118 62.6197 30.0413 62.4401 29.2368 62.4401C28.477 62.4401 27.7619 62.6197 27.1808 62.934C26.5998 63.2483 26.1081 63.6973 25.7953 64.2811C25.4824 64.8648 25.3036 65.5383 25.3036 66.3017V66.9752C25.3036 67.7835 25.4824 68.457 25.8847 69.0857C26.2869 69.7143 26.7786 70.1633 27.4937 70.4776C28.1641 70.792 29.0133 70.9716 29.9519 70.9716C30.8011 70.9716 31.5163 70.8369 32.142 70.6123C32.7677 70.3878 33.3488 70.0286 33.8851 69.5347L36.2987 71.9594C35.5835 72.7228 34.6896 73.3065 33.5723 73.7106C32.4549 74.1597 31.2034 74.3393 29.7732 74.3393Z" fill="#3149AA"/>
<path d="M44.3884 74.1153L37.7735 59.522H42.5112L48.0088 72.0947H45.6399L51.3609 59.522H55.741L49.0814 74.1153H44.3884Z" fill="#3149AA"/>
<path d="M59.8531 57.456C59.0039 57.456 58.3335 57.2315 57.7971 56.7824C57.2608 56.3334 56.9926 55.7497 56.9926 55.0761C56.9926 54.4026 57.2608 53.8638 57.7971 53.3698C58.3335 52.9208 59.0039 52.6963 59.8531 52.6963C60.7023 52.6963 61.3728 52.9208 61.9091 53.3249C62.4454 53.7291 62.7136 54.3128 62.7136 54.9863C62.7136 55.7048 62.4454 56.2885 61.9538 56.7375C61.4174 57.2315 60.747 57.456 59.8531 57.456ZM57.5737 59.5215H62.1326V74.1149H57.5737V59.5215Z" fill="#3149AA"/>
<path d="M72.9936 74.3398C71.6974 74.3398 70.5353 74.1153 69.5073 73.6214C68.4794 73.1724 67.6748 72.409 67.1385 71.4661C66.5575 70.4782 66.2893 69.2658 66.2893 67.7391V59.4771H70.8482V67.1105C70.8482 68.3229 71.1164 69.2209 71.6974 69.8047C72.2338 70.3884 73.0383 70.6578 74.0663 70.6578C74.7814 70.6578 75.4071 70.5231 75.9435 70.2537C76.4798 69.9843 76.9268 69.5352 77.2396 68.9515C77.5525 68.3678 77.6866 67.6044 77.6866 66.7513V59.5219H82.2008V74.1153H77.8654V70.0741L78.6699 71.2415C78.1335 72.2743 77.3737 73.0377 76.3457 73.5316C75.3177 74.0704 74.2003 74.3398 72.9936 74.3398Z" fill="#3149AA"/>
<path d="M84.078 74.1154L93.1958 55.1216H97.8442L107.007 74.1154H102.046L94.5814 57.3218H96.4586L88.9498 74.1154H84.078ZM88.6369 70.0293L89.8884 66.7065H100.392L101.688 70.0293H88.6369Z" fill="#3149AA"/>
<path d="M113.89 55.1216H109.152V74.1154H113.89V55.1216Z" fill="#3149AA"/>
</svg>
