<svg width="37" height="37" viewBox="0 0 37 37" fill="none" xmlns="http://www.w3.org/2000/svg">
<path d="M36.6428 16.8813C36.6428 17.9162 36.6428 18.9511 36.6428 19.986C36.5134 20.5034 36.5134 21.1502 36.384 21.6676C34.8317 28.9118 30.5628 33.5688 23.5774 35.8972C22.4132 36.2853 21.2489 36.4147 19.9553 36.544C18.9204 36.544 17.8856 36.544 16.8507 36.544C16.4626 36.544 16.0745 36.4147 15.6864 36.4147C13.6167 36.156 11.6763 35.5092 9.73588 34.4743C9.60652 34.3449 9.3478 34.3449 9.21844 34.4743C6.63124 35.2504 4.04404 35.8972 1.5862 36.6734C1.19812 36.6734 0.680683 36.6734 0.292603 36.6734C0.292603 36.6734 0.292603 36.6734 0.292603 36.544C0.292603 36.156 0.292603 35.6385 0.292603 35.2504C1.06876 32.6632 1.71556 30.076 2.49172 27.6182C2.49172 27.3595 2.49172 27.2301 2.36236 27.1008C1.71556 25.9365 1.19812 24.6429 0.939403 23.3493C0.680683 22.3144 0.551323 21.2796 0.292603 20.1153C0.292603 19.0804 0.292603 18.0456 0.292603 17.0107C0.421963 16.2345 0.421963 15.5877 0.680683 14.9409C2.36236 7.95548 6.63124 3.42788 13.358 1.0994C14.5222 0.581962 15.6864 0.452602 16.8507 0.323242C17.8856 0.323242 18.9204 0.323242 19.9553 0.323242C20.6021 0.452602 21.1196 0.452602 21.7664 0.581962C28.8812 2.13428 33.5381 6.2738 35.8666 13.1299C36.2547 14.2941 36.5134 15.5877 36.6428 16.8813ZM17.8856 34.4743C18.2736 34.6036 18.6617 34.4743 19.1792 34.4743C20.6021 34.4743 22.0251 34.2156 23.3187 33.6981C30.6922 31.2403 35.6079 23.7374 34.1849 15.7171C32.6326 7.17932 24.4829 1.0994 15.4277 2.78108C7.79548 4.20404 2.10364 11.1895 2.49172 19.2098C2.62108 21.797 3.26788 24.1255 4.56148 26.3246C4.8202 26.7127 4.8202 27.1008 4.69084 27.6182C4.1734 29.5586 3.65596 31.499 3.00916 33.4394C3.00916 33.5688 2.8798 33.6981 3.00916 33.8275C3.13852 33.9568 3.26788 33.8275 3.39724 33.8275C5.33764 33.31 7.27804 32.7926 9.21844 32.1458C9.60652 32.0164 9.9946 32.0164 10.3827 32.2752C12.8405 33.6981 15.169 34.3449 17.8856 34.4743Z" fill="#EC2327"/>
<path d="M18.1444 12.8712C18.1444 14.0355 17.7563 14.8116 17.1095 15.4584C16.9801 15.5878 16.8508 15.7172 16.8508 15.7172C16.3333 16.2346 16.3333 16.4933 16.8508 17.0108C17.8857 18.0456 18.9205 19.0805 19.8261 19.986C20.3435 20.5035 20.6022 20.5035 20.9903 19.986C21.5077 19.3392 22.1545 18.9512 23.0601 18.6924C24.2243 18.4337 25.2592 18.6924 26.1647 19.4686C26.5528 19.8567 26.9409 20.2448 27.4583 20.6328C28.4932 21.7971 28.7519 23.6081 27.8464 24.9017C26.6821 26.454 25.2592 27.6183 23.3188 27.877C21.7665 28.1357 20.2141 28.0064 18.7912 27.3596C13.8755 25.5485 10.5121 22.1852 9.08917 17.0108C8.57173 15.8465 8.44237 14.1648 9.08917 12.6125C9.60661 11.1896 10.6415 10.0253 11.8057 9.24916C13.0993 8.34364 14.9104 8.60236 16.0746 9.63724C16.4627 9.89596 16.8508 10.284 17.1095 10.6721C17.8857 11.3189 18.1444 12.0951 18.1444 12.8712ZM21.8958 26.066C22.2839 26.066 22.672 26.066 23.0601 25.9366C24.3537 25.6779 25.2592 24.9017 25.906 23.9962C26.2941 23.4788 26.1647 22.832 25.7766 22.3145C25.5179 21.9264 25.1298 21.6677 24.7417 21.2796C24.3537 20.8916 23.9656 20.7622 23.4481 21.0209C23.0601 21.1503 22.8013 21.5384 22.5426 21.7971C21.3784 22.9613 19.6967 22.9613 18.5325 21.7971C17.3682 20.6328 16.3333 19.598 15.1691 18.4337C14.0049 17.2695 14.0049 15.5878 15.1691 14.4236C15.2985 14.2942 15.4278 14.1648 15.6865 13.9061C16.204 13.3887 16.204 12.6125 15.6865 12.0951C15.4278 11.707 15.0397 11.4483 14.6517 11.0602C14.1342 10.8015 13.4874 10.6721 12.97 11.0602C12.0645 11.8364 11.2883 12.6125 11.0296 13.7768C10.7709 14.941 10.9002 16.1052 11.1589 17.2695C12.0645 20.3741 14.1342 22.7026 16.7214 24.3843C18.4031 25.4192 19.9554 26.066 21.8958 26.066Z" fill="#EC2327"/>
</svg>
