<svg width="17" height="12" viewBox="0 0 17 12" fill="none" xmlns="http://www.w3.org/2000/svg">
<path d="M16.133 2.6046C16.133 1.2398 15.1292 0.141899 13.8887 0.141899C12.2085 0.0630436 10.4949 0.0327148 8.74494 0.0327148C8.65395 0.0327148 8.56297 0.0327148 8.47198 0.0327148C8.38099 0.0327148 8.29001 0.0327148 8.19902 0.0327148C6.45208 0.0327148 4.73547 0.0630436 3.05525 0.141899C1.81784 0.141899 0.813951 1.24587 0.813951 2.61067C0.738129 3.69037 0.704768 4.77008 0.7078 5.84978C0.704768 6.92949 0.738129 8.0092 0.810918 9.09194C0.810918 10.4567 1.8148 11.5637 3.05222 11.5637C4.81736 11.6456 6.62799 11.682 8.46895 11.679C10.3129 11.6851 12.1175 11.6487 13.8857 11.5637C15.1261 11.5637 16.13 10.4567 16.13 9.09194C16.2028 8.0092 16.2362 6.92949 16.2331 5.84675C16.2392 4.76705 16.2058 3.68734 16.133 2.6046ZM6.98587 8.82504V2.86543L11.3835 5.84372L6.98587 8.82504Z" fill="black"/>
</svg>
